<?xml version="1.0" standalone="no"?>
<!DOCTYPE svg PUBLIC "-//W3C//DTD SVG 20010904//EN"
 "http://www.w3.org/TR/2001/REC-SVG-20010904/DTD/svg10.dtd">
<svg version="1.0" xmlns="http://www.w3.org/2000/svg"
 width="512.000000pt" height="512.000000pt" viewBox="0 0 512.000000 512.000000"
 preserveAspectRatio="xMidYMid meet">

<g transform="translate(0.000000,512.000000) scale(0.100000,-0.100000)"
fill="#000000" stroke="none">
<path d="M2110 4955 l0 -165 -165 0 -165 0 0 -170 0 -170 -165 0 -165 0 0
-165 0 -165 -170 0 -170 0 2 -167 3 -168 165 0 165 0 3 168 2 167 165 0 165 0
0 165 0 165 165 0 165 0 0 170 0 170 335 0 335 0 0 -2230 0 -2230 -335 0 -335
0 0 170 0 170 -165 0 -165 0 0 165 0 165 -165 0 -165 0 -2 168 -3 167 -165 0
-165 0 -3 -168 -2 -167 170 0 170 0 0 -165 0 -165 165 0 165 0 0 -170 0 -170
165 0 165 0 0 -165 0 -165 335 0 335 0 0 165 0 165 168 2 167 3 0 2225 0 2225
-167 3 -168 2 0 165 0 165 -335 0 -335 0 0 -165z"/>
<path d="M4790 2560 l0 -1780 165 0 165 0 0 1780 0 1780 -165 0 -165 0 0
-1780z"/>
<path d="M4120 2560 l0 -1340 165 0 165 0 0 1340 0 1340 -165 0 -165 0 0
-1340z"/>
<path d="M330 3615 l0 -165 -165 0 -165 0 0 -890 0 -890 165 0 165 0 0 -165 0
-165 390 0 390 0 0 165 0 165 -390 0 -390 0 0 890 0 890 390 0 390 0 0 165 0
165 -390 0 -390 0 0 -165z"/>
<path d="M3450 2560 l0 -780 165 0 165 0 0 780 0 780 -165 0 -165 0 0 -780z"/>
</g>
</svg>
