<svg id="svg" version="1.1" xmlns="http://www.w3.org/2000/svg" xmlns:xlink="http://www.w3.org/1999/xlink" width="400" height="400" viewBox="0, 0, 400,400"><g id="svgg"><path id="path0" d="M133.333 50.000 L 133.333 66.667 100.000 66.667 L 66.667 66.667 66.667 100.000 L 66.667 133.333 50.000 133.333 L 33.333 133.333 33.333 166.667 L 33.333 200.000 50.000 200.000 L 66.667 200.000 66.667 216.667 L 66.667 233.333 100.000 233.333 L 133.333 233.333 133.333 216.667 L 133.333 200.000 150.000 200.000 L 166.667 200.000 166.667 183.333 L 166.667 166.667 216.667 166.667 L 266.667 166.667 266.667 133.333 L 266.667 100.000 233.333 100.000 L 200.000 100.000 200.000 83.333 L 200.000 66.667 183.333 66.667 L 166.667 66.667 166.667 50.000 L 166.667 33.333 150.000 33.333 L 133.333 33.333 133.333 50.000 M166.667 83.333 L 166.667 100.000 183.333 100.000 L 200.000 100.000 200.000 116.667 L 200.000 133.333 183.333 133.333 L 166.667 133.333 166.667 150.000 L 166.667 166.667 150.000 166.667 L 133.333 166.667 133.333 150.000 L 133.333 133.333 116.667 133.333 L 100.000 133.333 100.000 116.667 L 100.000 100.000 116.667 100.000 L 133.333 100.000 133.333 83.333 L 133.333 66.667 150.000 66.667 L 166.667 66.667 166.667 83.333 " stroke="none" fill="#fc5c5c" fill-rule="evenodd"></path><path id="path1" d="M200.000 216.667 L 200.000 233.333 183.333 233.333 L 166.667 233.333 166.667 250.000 L 166.667 266.667 200.000 266.667 L 233.333 266.667 233.333 300.000 L 233.333 333.333 183.333 333.333 L 133.333 333.333 133.333 350.000 L 133.333 366.667 200.000 366.667 L 266.667 366.667 266.667 350.000 L 266.667 333.333 300.000 333.333 L 333.333 333.333 333.333 300.000 L 333.333 266.667 350.000 266.667 L 366.667 266.667 366.667 250.000 L 366.667 233.333 350.000 233.333 L 333.333 233.333 333.333 250.000 L 333.333 266.667 283.333 266.667 L 233.333 266.667 233.333 233.333 L 233.333 200.000 216.667 200.000 L 200.000 200.000 200.000 216.667 " stroke="none" fill="#dcdcdc" fill-rule="evenodd"></path><path id="path2" d="M166.667 50.000 L 166.667 66.667 183.333 66.667 L 200.000 66.667 200.000 83.333 L 200.000 100.000 233.333 100.000 L 266.667 100.000 266.667 133.333 L 266.667 166.667 250.000 166.667 L 233.333 166.667 233.333 183.333 L 233.333 200.000 250.000 200.000 L 266.667 200.000 266.667 216.667 L 266.667 233.333 300.000 233.333 L 333.333 233.333 333.333 216.667 L 333.333 200.000 350.000 200.000 L 366.667 200.000 366.667 166.667 L 366.667 133.333 350.000 133.333 L 333.333 133.333 333.333 100.000 L 333.333 66.667 300.000 66.667 L 266.667 66.667 266.667 50.000 L 266.667 33.333 216.667 33.333 L 166.667 33.333 166.667 50.000 " stroke="none" fill="#b42424" fill-rule="evenodd"></path><path id="path3" d="M133.333 83.333 L 133.333 100.000 116.667 100.000 L 100.000 100.000 100.000 116.667 L 100.000 133.333 116.667 133.333 L 133.333 133.333 133.333 150.000 L 133.333 166.667 150.000 166.667 L 166.667 166.667 166.667 150.000 L 166.667 133.333 183.333 133.333 L 200.000 133.333 200.000 116.667 L 200.000 100.000 183.333 100.000 L 166.667 100.000 166.667 83.333 L 166.667 66.667 150.000 66.667 L 133.333 66.667 133.333 83.333 M166.667 116.667 L 166.667 133.333 150.000 133.333 L 133.333 133.333 133.333 116.667 L 133.333 100.000 150.000 100.000 L 166.667 100.000 166.667 116.667 " stroke="none" fill="#fc9ca4" fill-rule="evenodd"></path><path id="path4" d="M133.333 16.667 L 133.333 33.333 100.000 33.333 L 66.667 33.333 66.667 50.000 L 66.667 66.667 50.000 66.667 L 33.333 66.667 33.333 100.000 L 33.333 133.333 16.667 133.333 L 0.000 133.333 0.000 200.000 L 0.000 266.667 16.667 266.667 L 33.333 266.667 33.333 300.000 L 33.333 333.333 50.000 333.333 L 66.667 333.333 66.667 350.000 L 66.667 366.667 100.000 366.667 L 133.333 366.667 133.333 383.333 L 133.333 400.000 200.000 400.000 L 266.667 400.000 266.667 383.333 L 266.667 366.667 300.000 366.667 L 333.333 366.667 333.333 350.000 L 333.333 333.333 350.000 333.333 L 366.667 333.333 366.667 300.000 L 366.667 266.667 383.333 266.667 L 400.000 266.667 400.000 200.000 L 400.000 133.333 383.333 133.333 L 366.667 133.333 366.667 100.000 L 366.667 66.667 350.000 66.667 L 333.333 66.667 333.333 50.000 L 333.333 33.333 300.000 33.333 L 266.667 33.333 266.667 16.667 L 266.667 0.000 200.000 0.000 L 133.333 0.000 133.333 16.667 M266.667 50.000 L 266.667 66.667 300.000 66.667 L 333.333 66.667 333.333 100.000 L 333.333 133.333 350.000 133.333 L 366.667 133.333 366.667 166.667 L 366.667 200.000 350.000 200.000 L 333.333 200.000 333.333 216.667 L 333.333 233.333 350.000 233.333 L 366.667 233.333 366.667 250.000 L 366.667 266.667 350.000 266.667 L 333.333 266.667 333.333 300.000 L 333.333 333.333 300.000 333.333 L 266.667 333.333 266.667 350.000 L 266.667 366.667 200.000 366.667 L 133.333 366.667 133.333 350.000 L 133.333 333.333 100.000 333.333 L 66.667 333.333 66.667 300.000 L 66.667 266.667 50.000 266.667 L 33.333 266.667 33.333 250.000 L 33.333 233.333 50.000 233.333 L 66.667 233.333 66.667 216.667 L 66.667 200.000 50.000 200.000 L 33.333 200.000 33.333 166.667 L 33.333 133.333 50.000 133.333 L 66.667 133.333 66.667 100.000 L 66.667 66.667 100.000 66.667 L 133.333 66.667 133.333 50.000 L 133.333 33.333 200.000 33.333 L 266.667 33.333 266.667 50.000 M166.667 183.333 L 166.667 200.000 150.000 200.000 L 133.333 200.000 133.333 216.667 L 133.333 233.333 100.000 233.333 L 66.667 233.333 66.667 250.000 L 66.667 266.667 116.667 266.667 L 166.667 266.667 166.667 283.333 L 166.667 300.000 200.000 300.000 L 233.333 300.000 233.333 283.333 L 233.333 266.667 283.333 266.667 L 333.333 266.667 333.333 250.000 L 333.333 233.333 300.000 233.333 L 266.667 233.333 266.667 216.667 L 266.667 200.000 250.000 200.000 L 233.333 200.000 233.333 183.333 L 233.333 166.667 200.000 166.667 L 166.667 166.667 166.667 183.333 M233.333 233.333 L 233.333 266.667 200.000 266.667 L 166.667 266.667 166.667 233.333 L 166.667 200.000 200.000 200.000 L 233.333 200.000 233.333 233.333 " stroke="none" fill="#442c24" fill-rule="evenodd"></path><path id="path5" d="M133.333 116.667 L 133.333 133.333 150.000 133.333 L 166.667 133.333 166.667 116.667 L 166.667 100.000 150.000 100.000 L 133.333 100.000 133.333 116.667 M166.667 216.667 L 166.667 233.333 183.333 233.333 L 200.000 233.333 200.000 216.667 L 200.000 200.000 183.333 200.000 L 166.667 200.000 166.667 216.667 M33.333 250.000 L 33.333 266.667 50.000 266.667 L 66.667 266.667 66.667 300.000 L 66.667 333.333 150.000 333.333 L 233.333 333.333 233.333 316.667 L 233.333 300.000 200.000 300.000 L 166.667 300.000 166.667 283.333 L 166.667 266.667 116.667 266.667 L 66.667 266.667 66.667 250.000 L 66.667 233.333 50.000 233.333 L 33.333 233.333 33.333 250.000 " stroke="none" fill="#fffefe" fill-rule="evenodd"></path></g></svg>