<?xml version="1.0" standalone="no"?>
<!DOCTYPE svg PUBLIC "-//W3C//DTD SVG 20010904//EN"
 "http://www.w3.org/TR/2001/REC-SVG-20010904/DTD/svg10.dtd">
<svg version="1.0" xmlns="http://www.w3.org/2000/svg"
 width="444.000000pt" height="444.000000pt" viewBox="0 0 444.000000 444.000000"
 preserveAspectRatio="xMidYMid meet">
<metadata>
Created by potrace 1.14, written by Peter Selinger 2001-2017
</metadata>
<g transform="translate(0.000000,444.000000) scale(0.100000,-0.100000)"
fill="#000000" stroke="none">
<path d="M80 4420 c0 -13 -7 -20 -20 -20 -13 0 -20 -7 -20 -19 0 -10 -9 -21
-20 -24 -19 -5 -19 -19 -19 -1031 0 -1011 0 -1026 19 -1026 13 0 20 -7 20 -20
0 -13 7 -20 20 -20 17 0 20 -7 20 -40 0 -33 -3 -40 -20 -40 -13 0 -20 -7 -20
-20 0 -13 -7 -20 -20 -20 -19 0 -19 -13 -19 -1030 0 -1016 0 -1030 19 -1030
13 0 20 -7 20 -20 0 -13 7 -20 20 -20 13 0 20 -7 20 -19 0 -20 16 -20 1030
-20 1017 0 1030 0 1030 19 0 13 7 20 20 20 13 0 20 7 20 20 0 17 7 20 40 20
33 0 40 -3 40 -20 0 -13 7 -20 19 -20 10 0 21 -9 24 -20 5 -19 20 -19 1031
-19 1011 0 1026 0 1026 19 0 13 7 20 20 20 13 0 20 7 20 19 0 10 9 21 19 24
20 5 20 22 20 1031 0 1014 0 1026 -19 1026 -13 0 -20 7 -20 20 0 13 -7 20 -20
20 -17 0 -20 7 -20 40 0 33 3 40 20 40 13 0 20 7 20 20 0 13 7 20 20 20 19 0
19 14 19 1030 0 1015 0 1030 -19 1030 -13 0 -20 7 -20 20 0 13 -7 20 -19 20
-10 0 -21 9 -24 20 -5 19 -19 19 -1031 19 -1013 0 -1026 0 -1026 -19 0 -13 -7
-20 -20 -20 -13 0 -20 -7 -20 -19 0 -21 -21 -29 -57 -23 -14 3 -23 12 -23 23
0 12 -7 19 -19 19 -10 0 -21 9 -24 20 -5 19 -20 19 -1031 19 -1014 0 -1026 0
-1026 -19z m2180 -2140 c0 -13 7 -20 20 -20 17 0 20 -7 20 -40 0 -33 -3 -40
-20 -40 -13 0 -20 -7 -20 -20 0 -17 -7 -20 -40 -20 -33 0 -40 3 -40 20 0 13
-7 20 -19 20 -23 0 -29 13 -23 52 3 19 10 28 23 28 12 0 19 7 19 20 0 17 7 20
40 20 33 0 40 -3 40 -20z"/>
</g>
</svg>
