<?xml version="1.0" standalone="no"?>
<!DOCTYPE svg PUBLIC "-//W3C//DTD SVG 20010904//EN"
 "http://www.w3.org/TR/2001/REC-SVG-20010904/DTD/svg10.dtd">
<svg version="1.0" xmlns="http://www.w3.org/2000/svg"
 width="1200.000000pt" height="1200.000000pt" viewBox="0 0 1200.000000 1200.000000"
 preserveAspectRatio="xMidYMid meet">

<g transform="translate(0.000000,1200.000000) scale(0.100000,-0.100000)"
fill="#000000" stroke="none">
<path d="M4000 11500 l0 -500 -1000 0 -1000 0 0 -500 0 -500 -500 0 -500 0 0
-1000 0 -1000 -500 0 -500 0 0 -2000 0 -2000 500 0 500 0 0 -1000 0 -1000 500
0 500 0 0 -500 0 -500 1000 0 1000 0 0 -500 0 -500 2000 0 2000 0 0 500 0 500
1000 0 1000 0 0 500 0 500 500 0 500 0 0 1000 0 1000 500 0 500 0 0 2000 0
2000 -500 0 -500 0 0 1000 0 1000 -500 0 -500 0 0 500 0 500 -1000 0 -1000 0
0 500 0 500 -2000 0 -2000 0 0 -500z m1000 -2000 l0 -500 500 0 500 0 0 -500
0 -500 -500 0 -500 0 0 -500 0 -500 -500 0 -500 0 0 500 0 500 -500 0 -500 0
0 500 0 500 500 0 500 0 0 500 0 500 500 0 500 0 0 -500z m2000 -4500 l0
-1000 1500 0 1500 0 0 500 0 500 500 0 500 0 0 -500 0 -500 -500 0 -500 0 0
-1000 0 -1000 -1000 0 -1000 0 0 -500 0 -500 -2000 0 -2000 0 0 500 0 500
-1000 0 -1000 0 0 1000 0 1000 -500 0 -500 0 0 500 0 500 500 0 500 0 0 -500
0 -500 1500 0 1500 0 0 1000 0 1000 1000 0 1000 0 0 -1000z"/>
<path d="M5000 3500 l0 -500 1000 0 1000 0 0 500 0 500 -1000 0 -1000 0 0
-500z"/>
</g>
</svg>
